<?xml version="1.0" encoding="utf-8"?>
<!-- Generator: Adobe Illustrator 16.0.0, SVG Export Plug-In . SVG Version: 6.00 Build 0)  -->
<!DOCTYPE svg PUBLIC "-//W3C//DTD SVG 1.1//EN" "http://www.w3.org/Graphics/SVG/1.1/DTD/svg11.dtd">
<svg version="1.1" id="Layer_1" xmlns="http://www.w3.org/2000/svg" xmlns:xlink="http://www.w3.org/1999/xlink" x="0px" y="0px"
	 width="1618px" height="390px" viewBox="0 0 1618 390" enable-background="new 0 0 1618 390" xml:space="preserve">
<path fill-rule="evenodd" clip-rule="evenodd" d="M220.04,222.45c-0.07-0.94-0.19-1.83-0.33-2.67c-0.12-0.62-0.26-1.24-0.41-1.85
	c-0.35-1.48-0.89-2.92-1.63-4.3c-0.57-1.04-1.11-2.08-1.63-3.11c-0.57-1.11-1.1-2.2-1.59-3.26c-0.1-0.17-0.2-0.33-0.3-0.48
	c-0.44-0.62-0.84-1.33-1.19-2.15c-0.05-0.1-0.09-0.2-0.11-0.3l0.78-1.3c0.32-0.44,0.65-0.9,1-1.37c0.13-0.17,0.19-0.36,0.19-0.56
	c0.02-0.62-0.12-1.16-0.44-1.63c-0.37-0.2-0.78-0.22-1.22-0.07c-0.2,0.1-0.4,0.19-0.59,0.26c-0.35,0.2-0.7,0.38-1.08,0.56
	l-0.96-2.52l-0.96-0.89l-2.04-1.15c-0.3-0.25-0.37-0.57-0.22-0.96c0.15-0.47,0.33-0.96,0.56-1.48c0.22-0.52,0.43-1.05,0.63-1.59
	c0.32-0.94,0.84-1.69,1.56-2.26l0.11-0.56l-1.63,1.3c-0.1-0.74-0.17-1.47-0.22-2.19c-0.03-0.37-0.03-0.73,0-1.08
	c0-0.07-0.01-0.14-0.04-0.19c-0.12-0.02-0.21-0.02-0.26,0c-0.44,0.42-0.87,0.85-1.26,1.3c-0.2,0.25-0.38,0.51-0.56,0.78
	c-0.39,0.62-0.88,1.26-1.45,1.93c-0.44,0.54-0.89,1.07-1.33,1.59c-0.15,0.17-0.32,0.32-0.52,0.45c-0.17,0.12-0.37,0.21-0.59,0.26
	c-1.21,0.07-2.4,0.27-3.56,0.59c-0.07-0.47-0.32-0.85-0.74-1.15c-1.04-0.42-1.96-0.26-2.78,0.48c-0.42,0.37-0.88,0.57-1.37,0.59
	c-2.13,0.2-4.18,0.69-6.15,1.48c-0.47,0.2-0.94,0.37-1.41,0.52c-1.56,0.44-3.13,0.88-4.71,1.3c-0.42,0.02-0.82,0.11-1.19,0.26
	c-1.68,0.84-3.37,1.57-5.08,2.19c-0.22,0.1-0.43,0.22-0.63,0.37c-0.25,0.25-0.47,0.44-0.67,0.59c-0.67,0.32-1.29,0.74-1.85,1.26
	c-0.2,0.17-0.43,0.31-0.71,0.41c-0.96,0.39-1.78,0.9-2.44,1.52c-0.25,0.22-0.53,0.4-0.85,0.52c-1.06,0.44-1.96,1.06-2.71,1.85
	c-0.35,0.37-0.67,0.74-0.96,1.11c-0.27,0.37-0.57,0.72-0.89,1.04c-0.32,0.25-0.62,0.51-0.89,0.78c-0.27,0.25-0.54,0.47-0.82,0.67
	c-0.25,0.22-0.48,0.43-0.7,0.63c-0.35,0.27-0.67,0.58-0.96,0.93c-0.72,0.72-1.42,1.42-2.11,2.11l-0.11,0.52l-0.78,0.52l-0.41,0.59
	c-0.54,0.4-1.17,0.61-1.89,0.63c-0.54-0.12-0.93-0.42-1.15-0.89c-0.12-0.25-0.3-0.47-0.52-0.67c-0.22-0.2-0.35-0.45-0.37-0.74
	c-0.05-0.39-0.09-0.79-0.11-1.18c-0.07-1.09-0.12-2.17-0.15-3.26c1.14-0.05,2.11-0.31,2.93-0.78c0.2-0.15,0.36-0.32,0.48-0.52
	c0.57-0.81,0.75-1.72,0.56-2.71c-0.15-0.74-0.28-1.53-0.41-2.37c-0.12-0.94-0.31-1.88-0.56-2.82c-0.49-1.8-0.94-3.63-1.33-5.48
	c-0.05-0.2-0.11-0.37-0.18-0.52c-0.37-0.84-0.58-1.75-0.63-2.74l-0.11-1.04c0.02-0.03,0.05-0.06,0.07-0.11
	c0.59-0.84,1.32-1.58,2.19-2.22c0.22-0.17,0.44-0.35,0.67-0.52c0.64-0.47,1.12-1.04,1.45-1.7c0.1-0.22,0.2-0.44,0.3-0.67
	c0.22-0.47,0.3-0.95,0.22-1.45c-0.15-0.94-0.46-1.77-0.93-2.48c-0.25-0.32-0.56-0.56-0.93-0.7l-0.37-0.45v-2.67
	c-0.5-0.62-1.12-0.89-1.89-0.81c-0.39,0.05-0.74,0.26-1.04,0.63c-0.02,0-0.04,0.01-0.04,0.04l-3.82-127.62
	c3.71-1.21,5.43-3.22,5.19-6.04c-0.81-9.44-3.25-20.34-7.3-32.72c-3.83,11.81-6.18,22.71-7.04,32.72c-0.25,2.81,1.48,4.83,5.19,6.04
	l3.82,127.1c-0.2-0.12-0.4-0.25-0.59-0.37c-0.25-0.12-0.48-0.21-0.7-0.26c-0.47-0.12-0.95-0.18-1.45-0.18
	c-0.2,0-0.38,0.02-0.56,0.07c-0.49,1.11-0.27,2.1,0.67,2.96c0.15,0.12,0.32,0.23,0.52,0.33c0.4,0.17,0.62,0.51,0.67,1
	c0.05,0.69-0.11,1.32-0.48,1.89c-0.27,0.42-0.36,0.91-0.26,1.48c0.07,0.37,0.2,0.73,0.37,1.07c0.05,0.1,0.1,0.2,0.15,0.3l-1.04,0.63
	l-0.3,0.48c-0.79,0.32-1.5,0.78-2.11,1.37c-0.1,0.08-0.21,0.12-0.33,0.15c-0.49,0.27-0.9,0.62-1.22,1.04
	c-0.12,0.17-0.26,0.21-0.41,0.11c-0.81-1.75-1.78-3.43-2.89-5.04c-0.35-0.52-0.67-1.05-0.96-1.59c-0.1-0.17-0.2-0.35-0.3-0.52
	c-0.32-0.69-0.63-1.42-0.93-2.19c-0.1-0.22-0.22-0.43-0.37-0.63c-1.06-1.61-2.22-3.11-3.48-4.52c-0.07-0.05-0.15-0.1-0.22-0.15
	c-0.27-0.42-0.27-0.89,0-1.41c0.54-1.01,1.14-1.98,1.78-2.89c0.12-0.86,0.26-1.74,0.41-2.63c0.07-0.42,0.22-0.78,0.45-1.08
	c0.2-0.27,0.31-0.59,0.33-0.96c0.02-0.3,0-0.58-0.07-0.85c-0.12-0.35-0.25-0.67-0.37-0.96l-2.45-2.67c0-0.82,0.31-1.57,0.93-2.26
	c0.17-0.22,0.33-0.45,0.48-0.67c0.3-0.42,0.47-0.79,0.52-1.11c0.02-0.27-0.02-0.53-0.15-0.78c-0.2-0.39-0.42-0.75-0.67-1.07
	c-0.44-0.64-0.64-1.39-0.59-2.26c0.03-0.49,0.05-0.99,0.08-1.48c0.05-0.59,0.09-1.18,0.11-1.78c-0.77,0.17-1.48,0.53-2.15,1.08
	c-0.27,0.2-0.56,0.36-0.85,0.48c-0.47,0.22-0.99,0.33-1.56,0.33c-1.26,0-2.51-0.03-3.74-0.07c-0.47-0.07-0.94-0.19-1.41-0.33
	c-1.19-0.15-2.32-0.54-3.41-1.19c-0.3-0.2-0.61-0.37-0.93-0.52c-0.32-0.12-0.63-0.28-0.93-0.48c-0.69,0.27-1.37,0.53-2.04,0.78
	c-0.2,0.07-0.37,0.17-0.52,0.3c-0.77,0.72-1.38,1.57-1.85,2.56c-0.25,0.52-0.52,1.03-0.82,1.52c-0.17,0.27-0.28,0.57-0.33,0.89
	c-0.12,1.04-0.3,2.03-0.52,2.96c-0.15,0.62-0.16,1.17-0.04,1.67c0.22,0.77,0.64,1.43,1.26,2c0.2,0.2,0.35,0.42,0.45,0.67
	c0.12,0.3,0.3,0.57,0.52,0.82c0.52,0.62,1.02,1.24,1.52,1.85c0.17,0.22,0.32,0.46,0.45,0.71c0.17,0.3,0.4,0.54,0.67,0.74
	c1.14,0.77,2.17,1.67,3.11,2.7c0.15,0.64,0.07,1.28-0.22,1.93c-0.07,0.15-0.15,0.31-0.22,0.48c-0.1,0.2-0.19,0.42-0.26,0.67
	c-0.4,0.25-0.69,0.48-0.89,0.71c-0.22,0.3-0.48,0.59-0.78,0.89c-0.3,0.27-0.54,0.59-0.74,0.96c-0.44,0.77-0.78,1.54-1,2.33
	c-0.15,0.49-0.32,0.96-0.52,1.41c-0.07,0.15-0.11,0.32-0.11,0.52c-0.05,0.15-0.09,0.3-0.11,0.44c-0.15,0.94-0.23,1.88-0.26,2.82
	c-0.07,1.88-0.1,3.74-0.07,5.59c0,0.35,0.02,0.7,0.07,1.08c0.1,0.64,0.2,1.3,0.3,1.96c0.22,1.31,0.67,2.57,1.33,3.78
	c0.49,0.91,0.95,1.83,1.37,2.74c1.68,3.48,3.4,6.93,5.15,10.34c0.35,0.77,0.23,1.51-0.33,2.22c-0.27,0.37-0.58,0.69-0.93,0.96
	c-0.22,0.17-0.45,0.35-0.67,0.52c-0.22,0.17-0.44,0.34-0.67,0.52c-0.27,0.25-0.51,0.52-0.7,0.82c-0.35,0.57-0.66,0.77-0.93,0.59
	c-0.17-0.05-0.35-0.09-0.52-0.11c-0.54-0.22-1.1-0.38-1.67-0.48c-0.94-0.27-1.91-0.45-2.93-0.52c-0.89-0.2-1.73-0.07-2.52,0.37
	c-0.35,0.25-0.53,0.59-0.56,1.04c-0.02,0.44,0.01,0.88,0.11,1.3c0.05,0.2,0.11,0.38,0.18,0.56c0.15,0.47,0.33,0.89,0.56,1.26
	c0.12,0.2,0.21,0.42,0.26,0.67c0.15,0.59,0.26,1.21,0.33,1.85c0.15,1.53,0.17,3.06,0.07,4.59c-0.02,0.37-0.16,0.7-0.41,1
	c-0.42,0.47-0.88,0.9-1.37,1.3c-0.3,0.25-0.62,0.45-0.96,0.59c-0.39,0.12-0.79,0.22-1.19,0.3c-0.64-0.02-1.23-0.14-1.78-0.33
	c-0.59-0.22-1.24-0.31-1.93-0.26c-0.47-0.15-0.93-0.3-1.37-0.45c-1.31-0.32-2.58-0.51-3.82-0.56c-1.06,0-2.13,0.01-3.19,0.04
	c-2.03-0.15-4.03-0.09-6,0.18c-1.14,0.05-2.26,0.2-3.37,0.44c-1.14,0.07-2.25,0.23-3.33,0.48c-1.31,0.3-2.61,0.63-3.89,1
	c-0.15,0.02-0.37,0.1-0.67,0.22c-0.35,0.05-0.67,0.16-0.96,0.33c-1.83,0.91-3.59,1.77-5.3,2.56c-0.35,0.2-0.68,0.41-1,0.63
	c-0.2,0.12-0.4,0.25-0.59,0.37c-0.3,0.2-0.57,0.31-0.82,0.33c-0.32,0.15-0.64,0.28-0.96,0.41c-0.42,0.25-0.84,0.47-1.26,0.67
	c-0.52,0.3-1.03,0.59-1.52,0.89c-0.96,0.57-1.84,1.22-2.63,1.96c-1.01,0.91-2.03,1.85-3.04,2.82c-0.59,0.54-1.12,1.14-1.59,1.78
	c-0.77,0.99-1.48,2.01-2.15,3.08c-0.94,1.48-1.9,3-2.89,4.56c-0.07,0.1-0.15,0.21-0.22,0.33c-0.72,1.63-1.35,3.35-1.89,5.15
	c-0.12,0.45-0.24,0.91-0.33,1.41c-0.2,0.87-0.33,1.75-0.41,2.67c-0.1,1.16-0.35,2.3-0.74,3.41c-0.2,0.47-0.36,0.96-0.48,1.48
	c-0.22,0.94-0.39,1.88-0.52,2.82c-0.25,2.1-0.44,4.21-0.59,6.34c-0.25,3.21-0.42,6.43-0.52,9.67c-0.12,3.95-0.23,7.87-0.33,11.75
	c-0.15,5.19-0.26,10.4-0.33,15.64c0,0.96,0.09,1.91,0.26,2.85c0.27,1.38,0.45,2.84,0.52,4.37c0.05,0.91,0.1,1.84,0.15,2.78
	c0.02,0.34,0.06,0.69,0.11,1.04c0.03,0.22,0.06,0.44,0.11,0.67c0.05,0.17,0.07,0.35,0.07,0.52c0.02,0.35,0.13,0.7,0.3,1.07
	c0.05,0.12,0.1,0.26,0.15,0.41c0.1,0.22,0.19,0.44,0.26,0.67c0.22,0.59,0.64,1.06,1.26,1.41c0.05,0,0.11,0,0.19,0
	c0.94-0.1,1.89-0.19,2.85-0.26c0.35-0.12,0.68-0.22,1-0.3c1.16-0.25,2.35-0.42,3.56-0.52c0.54-0.12,1.07-0.27,1.59-0.44
	c0.52-0.2,1.02-0.38,1.52-0.56c0.79-0.22,1.43-0.67,1.93-1.33c0.17-0.27,0.3-0.57,0.37-0.89c0.1-0.44,0.2-0.88,0.3-1.3
	c0.12-0.59,0.19-1.15,0.19-1.67c0.02-1.93,0.04-3.85,0.04-5.78c0-1.88,0.02-3.75,0.07-5.63c0.03-1.88-0.06-3.66-0.26-5.34
	c-0.07-0.69-0.17-1.37-0.3-2.04c-0.27-1.56-0.42-3.11-0.44-4.67c-0.02-1.95-0.05-3.89-0.07-5.82c-0.02-1.53-0.05-3.06-0.07-4.59
	c-0.05-1.56-0.17-3.11-0.37-4.67l6.45-2.41l0.44-0.45c1.06-0.54,2.16-0.68,3.3-0.41c0.27,0.44,0.56,0.85,0.85,1.22
	c0.25,0.27,0.45,0.58,0.59,0.93c0.17,0.49,0.28,1.01,0.33,1.56c0.1,0.84,0.21,1.68,0.33,2.52c0.35,2.27,0.41,4.58,0.18,6.93
	c-0.1,0.91-0.16,1.84-0.18,2.78c0,0.74-0.11,1.51-0.33,2.3c-0.15,0.57-0.22,1.16-0.22,1.78c-0.03,0.84-0.28,1.63-0.78,2.37
	c-0.27,0.42-0.61,0.9-1,1.45c-0.47,0.64-0.96,1.26-1.48,1.85c-0.52,0.62-1.06,1.22-1.63,1.82c-0.5,0.49-0.95,1.01-1.37,1.56
	c-0.54,0.62-1.11,1.25-1.7,1.89c-0.27,0.32-0.51,0.66-0.71,1c-0.3,0.47-0.54,0.94-0.74,1.41c-0.03,0.2-0.05,0.41-0.08,0.63
	c-0.02,0.42-0.01,0.84,0.04,1.26c0.22,1.68,0.58,3.25,1.07,4.71c0.07,0.2,0.1,0.39,0.07,0.59c-0.07,0.42,0.04,0.69,0.33,0.81
	c0,0.37,0.01,0.64,0.04,0.82c0.22,1.7,0.48,3.45,0.78,5.22c0.02,0.22,0.06,0.44,0.11,0.67c0.1,0.59,0.2,1.22,0.3,1.89
	c0.05,0.34,0.1,0.71,0.15,1.11c0.1,0.59,0.17,1.21,0.22,1.85c0.12,2.15,0.12,4.27,0,6.37c-0.05,1.06-0.1,2.15-0.15,3.26
	c-0.02,1.04,0.07,2.05,0.3,3.04c0.15,0.72,0.43,1.42,0.85,2.11c0.1,0.17,0.21,0.36,0.33,0.56c0.3,0.52,0.72,0.99,1.26,1.41
	c0.22,0.15,0.46,0.26,0.7,0.33c0.32,0.1,0.67,0.16,1.04,0.19c0.79-0.05,1.31,0.26,1.56,0.93c-0.07,0.27-0.2,0.53-0.37,0.78
	c-0.35,0.47-0.73,0.87-1.15,1.19l-0.15,1.26c0.1,0.02,0.2,0.05,0.3,0.07c0.15,0.05,0.3,0.11,0.44,0.19
	c0.25,0.12,0.47,0.09,0.67-0.11l1.11-0.04c0.25,0.74,0.33,1.48,0.26,2.22c-0.02,0.22-0.05,0.46-0.07,0.7
	c-0.05,0.42-0.07,0.84-0.07,1.26c0.57,0.57,1.22,0.85,1.96,0.85c2.47-0.1,4.89-0.17,7.26-0.22c0.69,0,1.35-0.06,1.96-0.19
	c0.3-0.2,0.44-0.46,0.44-0.78c0-0.96-0.23-1.83-0.7-2.59c-0.74-1.26-1.51-2.52-2.3-3.78c-0.72-0.35-1.41-0.71-2.08-1.08
	c-0.27-0.17-0.52-0.37-0.74-0.59c-0.32-0.35-0.65-0.65-1-0.93c-0.27-0.22-0.54-0.43-0.82-0.63c-0.42-0.22-0.79-0.51-1.11-0.85
	c-0.3-0.27-0.61-0.54-0.93-0.82c-0.3-0.2-0.53-0.47-0.71-0.82c-0.91-1.7-1.48-3.52-1.7-5.45c-0.17-1.33-0.31-2.67-0.41-4
	c-0.12-1.73-0.1-3.46,0.07-5.19c0.2-1.93,0.43-3.83,0.7-5.71c0.27-1.88,0.69-3.73,1.26-5.56c0.1-0.32,0.17-0.64,0.22-0.96
	c0.1-0.86,0.31-1.67,0.63-2.41c0.25,0.44,0.54,0.84,0.89,1.19c0.05,0.07,0.1,0.15,0.15,0.22c0.05,0.12,0.11,0.26,0.19,0.41
	c0.07,0.15,0.15,0.32,0.22,0.52c0.05,0.17,0.11,0.36,0.19,0.55c0.86,0.87,1.32,1.95,1.37,3.26c0.03,0.99,0.03,1.99,0,3
	c-0.05,2.54,0.11,5.06,0.48,7.56c0.27,1.75,0.63,3.53,1.07,5.33c0.08,0.37,0.21,0.72,0.41,1.04c0.52,0.87,0.96,1.77,1.33,2.71
	c0.2,0.44,0.43,0.81,0.7,1.11c0.07,0.1,0.14,0.21,0.18,0.33c0.27,0.64,0.58,1.27,0.93,1.89c0.35,0.64,0.69,1.33,1.04,2.08
	c0.05,0.1,0.1,0.22,0.15,0.37c0.1,0.37,0.06,0.75-0.11,1.15c-0.17,0.44-0.32,0.89-0.45,1.33c-0.12,0.37-0.15,0.7-0.07,1l0.41,0.19
	l1.93,1.63c0.49,0.79,0.84,1.68,1.04,2.67c0.17,0.89,0.67,1.58,1.48,2.08c0.25,0.12,0.51,0.22,0.78,0.3
	c2.52,0.74,5.08,0.95,7.67,0.63c0.59-0.17,1.17-0.39,1.74-0.67c0.1-0.05,0.17-0.14,0.22-0.26c-0.1-0.4-0.28-0.75-0.56-1.08
	c-0.32-0.37-0.57-0.8-0.74-1.3c-0.22-0.69-0.49-1.33-0.82-1.93c-0.27-0.47-0.54-0.93-0.81-1.37c-0.35-0.57-0.67-1.14-0.96-1.7
	c-0.1-0.22-0.15-0.43-0.15-0.63c-0.05-0.74-0.22-1.45-0.52-2.11l-4-2.33l-0.18-0.3l-0.48-0.26c-0.77-1.06-1.31-2.21-1.63-3.45
	c-0.27-1.09-0.54-2.16-0.82-3.22c-0.05-0.22-0.12-0.41-0.22-0.56c-0.08-0.17-0.2-0.33-0.37-0.48c-0.32-0.81-0.5-1.62-0.52-2.41
	c-0.05-1.93-0.09-3.85-0.11-5.78c0-1.33-0.05-2.66-0.15-3.96c0-0.22,0.01-0.43,0.04-0.63c0-0.44-0.01-0.89-0.04-1.33
	c0-0.54-0.02-1.09-0.07-1.63c-0.12-1.04-0.22-2.08-0.3-3.11c-0.1-1.78,0.07-3.51,0.52-5.19c0.22-0.79,0.49-1.61,0.82-2.45
	c0.25-0.69,0.51-1.37,0.78-2.04c0.22-0.52,0.45-1.02,0.67-1.52c0.27-0.64,0.57-1.27,0.89-1.89c0.82-1.61,1.68-3.21,2.59-4.82
	c0.94-1.66,1.89-3.32,2.85-5c0.72-1.19,1.38-2.4,2-3.63c0.91-1.78,1.67-3.59,2.26-5.45c0.57-1.78,0.95-3.62,1.15-5.52
	c1.9,0,3.8-0.01,5.71-0.04c1.38,0,2.77-0.05,4.15-0.15c0.35-0.05,0.69-0.1,1.04-0.15c0.59-0.2,1.1-0.15,1.52,0.15
	c0.42,0.35,0.89,0.68,1.41,1c0.4,0.17,0.79,0.38,1.19,0.63c0.84,0.42,1.68,0.84,2.52,1.26c0.2,0.12,0.42,0.21,0.67,0.26
	c0.44,0.12,0.84,0.26,1.19,0.41c1.11,0.57,2.26,1.09,3.45,1.56c0.84,0.32,1.75,0.58,2.74,0.78c0.99-0.02,1.98-0.04,2.96-0.04
	c1.66,0.1,3.31,0.2,4.97,0.3c1.98,0.25,3.93,0.14,5.85-0.33c-0.27,2.77-0.26,5.46,0.04,8.08c0.02,0.02,0.06,0.05,0.11,0.07
	c0.35,0.05,0.69,0.07,1.04,0.07c0.44,0,0.88-0.07,1.3-0.22c1.26-0.35,2.51-0.62,3.74-0.82c0.45-0.15,0.85-0.11,1.22,0.11l0.52,1.11
	c0.59,0.02,1.2,0.05,1.82,0.07c0.42,0.02,0.78-0.07,1.07-0.3l0.52-1.41l1.37-0.41c0.05,2.05,0,4.08-0.15,6.08
	c-0.15,2.12-0.43,4.2-0.85,6.22c-0.22,1.06-0.62,2-1.19,2.82l0.04,0.45c-0.05,0.07-0.1,0.15-0.15,0.22
	c-0.52,1.21-1.03,2.46-1.52,3.74c-0.07,0.15-0.11,0.31-0.11,0.48c0,1.48,0.12,2.96,0.37,4.45c0.32,1.98,0.48,3.98,0.48,6
	c0,0.91,0.04,1.83,0.11,2.74c0.12,1.78,0.32,3.54,0.59,5.3c0.22,1.33,0.09,2.63-0.41,3.89c-0.5,1.26-0.95,2.57-1.37,3.93
	c-0.32,1.09-0.71,2.16-1.15,3.22c-0.39,0.94-0.43,1.88-0.11,2.82c0.05,0.05,0.11,0.09,0.19,0.11c0.96,0.64,1.71,1.61,2.22,2.89
	c0.2-0.45,0.42-0.88,0.67-1.3c0.2-0.32,0.49-0.59,0.89-0.82c0.22-0.1,0.46-0.2,0.71-0.3c0.32-0.03,0.56,0.07,0.7,0.3
	c0.27,0.54,0.57,1.05,0.89,1.52c0.1,0.17,0.19,0.35,0.26,0.52c0.12,0.42,0.22,0.85,0.3,1.3c0.05,0.4,0.01,0.88-0.11,1.45
	c-0.15,0.15-0.28,0.32-0.41,0.52c-0.1,0.17-0.15,0.37-0.15,0.59c-0.02,0.37-0.01,0.75,0.04,1.15c0.07,0.45,0.17,0.89,0.3,1.33
	c0.62,0.32,1.22,0.64,1.82,0.96c0.57,0.27,1,0.69,1.3,1.26c0.32,0.69,0.72,1.22,1.19,1.59c0.4,0.12,0.82,0.16,1.26,0.11
	c0.25-0.1,0.51-0.2,0.78-0.3c0.59-0.2,1.2-0.38,1.82-0.56c1.41-0.44,2.83-0.67,4.26-0.67l-0.18-0.89l-0.41-0.41
	c-0.02-0.22-0.05-0.43-0.07-0.63c-0.15-0.79-0.47-1.57-0.96-2.33c-0.2-0.27-0.38-0.54-0.56-0.82c-0.22-0.3-0.48-0.52-0.78-0.67
	c-0.84-0.27-1.51-0.77-2-1.48c-0.37-0.57-0.79-1.16-1.26-1.78c-0.2-0.12-0.36-0.26-0.48-0.41c-0.17-0.15-0.33-0.3-0.48-0.45
	c-0.64-0.54-1.15-1.17-1.52-1.89c-0.27-0.54-0.6-1.09-1-1.63c-0.22-0.27-0.37-0.61-0.44-1c-0.07-0.3-0.11-0.58-0.11-0.85
	c-0.07-1.8-0.17-3.64-0.3-5.52c-0.1-1.88-0.16-3.71-0.18-5.48c-0.03-1.04,0.07-2.06,0.3-3.08c0.1-0.47,0.2-0.96,0.3-1.48
	c0.07-0.3,0.14-0.57,0.19-0.81c0.27-0.99,0.59-1.96,0.96-2.93c0.64-1.66,1.16-3.37,1.56-5.15c0.15-0.64,0.27-1.3,0.37-1.96
	c0.12-0.99,0.36-1.98,0.7-2.96c0.2-0.62,0.42-1.2,0.67-1.74c0.77-1.83,1.2-3.72,1.3-5.67c0.15,1.38,0.09,2.75-0.19,4.11
	c-0.3,1.36-0.54,2.71-0.74,4.04c-0.22,1.33-0.33,2.67-0.33,4s0.09,2.67,0.26,4c0.12,1.06,0.42,2.09,0.89,3.08
	c0.12,0.25,0.2,0.52,0.22,0.82c0.07,1.11,0.1,2.22,0.07,3.33c-0.05,1.85-0.2,3.69-0.44,5.52c-0.02,0.25-0.07,0.51-0.15,0.78
	c-0.35,1.56-0.48,3.15-0.41,4.78c0.05,1.36,0.16,2.75,0.33,4.19c0.02,0.15,0.06,0.31,0.11,0.48c0.15,0.44,0.31,0.84,0.48,1.19
	c0.44,0.84,0.96,1.59,1.56,2.26c0.2,0.22,0.52,0.35,0.96,0.37c0.42,0.12,0.85,0.26,1.3,0.41c0.05,0.07,0.1,0.15,0.15,0.22
	c0.22,0.4,0.42,0.8,0.59,1.22c0.05,0.1,0.08,0.21,0.08,0.33c0,0.07,0,0.16,0,0.26l-0.26,0.33c-0.22,0.47-0.16,0.89,0.18,1.26
	c0.17,0.17,0.36,0.35,0.56,0.52c0.59,0.49,1,1.1,1.22,1.82c0.1,0.35,0.16,0.7,0.19,1.07c0.05,0.4,0.14,0.78,0.26,1.15
	c0.02,0.12,0.07,0.25,0.15,0.37l11.89,0.48c0.2-0.25,0.27-0.52,0.22-0.81c-0.07-0.52-0.26-1.03-0.56-1.52
	c-0.2-0.3-0.36-0.59-0.48-0.89c-0.39-0.82-0.91-1.54-1.56-2.19c-0.35-0.35-0.68-0.7-1-1.08c-0.25-0.25-0.51-0.38-0.78-0.41
	l-1.74-2.63l-0.48-0.33l-0.19-0.3c-0.49-0.3-0.96-0.62-1.41-0.96c-0.3-0.2-0.56-0.42-0.78-0.67c-0.79-0.79-1.59-1.57-2.41-2.33
	c-0.12-0.15-0.22-0.31-0.3-0.48c-0.15-0.37-0.27-0.77-0.37-1.19c-0.2-0.69-0.37-1.42-0.52-2.19c-0.02-0.17-0.05-0.33-0.08-0.48
	c-0.17-0.99-0.36-1.99-0.56-3c-0.15-0.74-0.18-1.5-0.11-2.26c0.1-1.33,0.22-2.67,0.37-4c0.17-1.7,0.35-3.41,0.52-5.11
	c0.12-1.19,0.47-2.3,1.04-3.33c0.54-0.96,0.98-1.93,1.3-2.89c0.15-0.4,0.28-0.79,0.41-1.19c0.12-0.35,0.22-0.69,0.3-1.04
	c0.32-1.85,0.17-3.68-0.44-5.48c-0.05-0.17-0.1-0.35-0.15-0.52c-0.22-0.77-0.26-1.58-0.11-2.45c0.07-0.32,0.14-0.64,0.18-0.96
	c0.05-0.2,0.1-0.38,0.15-0.56c0.99-2.87,1.85-5.68,2.59-8.45c0.25-0.91,0.45-1.84,0.59-2.78c0.07-0.54,0.16-1.04,0.26-1.48
	c0.17-0.79,0.33-1.63,0.48-2.52c0.12-0.67,0.21-1.36,0.26-2.08c0.02-0.37,0.17-0.68,0.44-0.93l0.44-3.08
	c1.58,0.17,3.19,0.26,4.82,0.26c1.85-0.1,3.71-0.06,5.56,0.11c1.04,0.22,2.06,0.49,3.08,0.82c-0.12-1.41-0.23-2.78-0.33-4.11
	c-0.02-0.32-0.1-0.63-0.22-0.93c-0.37-0.77-0.89-1.45-1.56-2.04c-0.49-1.04-1.01-2.14-1.56-3.3c-0.2-0.4-0.32-0.84-0.37-1.33
	c-0.15-1.7-0.11-3.45,0.11-5.22c0.12-0.86,0.17-1.74,0.15-2.63c-0.05-1.09-0.09-2.25-0.11-3.48c0-0.27-0.03-0.54-0.07-0.82
	c-0.22-1.16-0.67-2.21-1.33-3.15c-0.69-0.94-1.47-1.83-2.33-2.67c-0.15-0.15-0.3-0.28-0.45-0.41c-0.37-0.37-0.79-0.69-1.26-0.96
	c-0.79-0.47-1.67-0.69-2.63-0.67c0.59-1.8,1.33-3.54,2.22-5.22c0.17-0.37,0.36-0.73,0.56-1.08c0.49-0.96,1-1.8,1.52-2.52
	c0.42,0,0.8,0.1,1.15,0.3c0.42,0.3,0.91,0.36,1.48,0.19c0.3-0.1,0.58-0.22,0.85-0.37c0.62-0.42,1.22-0.9,1.82-1.45
	c0.39-0.35,0.77-0.7,1.11-1.08c0.54-0.54,1.16-0.73,1.85-0.56c0.3,0.47,0.26,1.01-0.11,1.63c-0.1,0.15-0.2,0.31-0.3,0.48
	c-0.52,0.82-0.64,1.72-0.37,2.71c0.07,0.27,0.2,0.54,0.37,0.82c0.15,0.22,0.35,0.42,0.59,0.59c0.44,0.35,0.94,0.62,1.48,0.81
	c1.38,0.49,2.53,0.16,3.45-1c0.15-0.2,0.32-0.36,0.52-0.48c0.42-0.22,0.71-0.54,0.85-0.96c0.22-0.67,0.59-1.01,1.11-1.04l2.33,1.26
	c0,0.05,0,0.09,0,0.11c-0.96,0.99-1.3,2.16-1,3.52c0.1,0.12,0.21,0.23,0.33,0.33c0.12,0.12,0.23,0.26,0.33,0.41
	c0.45,0.54,0.95,0.99,1.52,1.33c0.4,0.22,0.8,0.31,1.22,0.26c0.62-0.03,1.26-0.14,1.93-0.33c0.86-0.27,1.43-0.78,1.7-1.52
	c0.3-0.87,0.58-1.73,0.85-2.59c1.01-0.79,2.19-1.22,3.52-1.3l0.56-0.52l0.93-2.37v-0.41c0-0.3-0.17-0.54-0.52-0.74
	c-0.1-0.07-0.2-0.14-0.3-0.19l0.26-2.26c0.89,0.15,1.68-0.07,2.37-0.67c0.44-0.39,0.74-0.81,0.89-1.26c0.2-0.57,0.46-1.12,0.78-1.67
	c0.05-0.07,0.09-0.16,0.11-0.26c0.17-0.79,0.43-1.53,0.78-2.22c0.1-0.22,0.19-0.45,0.26-0.67c0.2-0.57,0.42-1.11,0.67-1.63
	c0.12-0.3,0.22-0.59,0.3-0.89c0.05-0.17,0.07-0.33,0.07-0.48C220.14,225.02,220.11,223.74,220.04,222.45z M211.74,237.01
	c-0.1,0-0.19,0-0.26,0c-0.3-0.15-0.59-0.3-0.89-0.45c-1.26-0.52-2.5-1.07-3.71-1.67c-0.45-0.22-0.89-0.4-1.33-0.52
	c-1.53-0.49-2.99-1.03-4.37-1.59c-0.54-0.2-1.03-0.41-1.45-0.63c-1.68-0.82-3.4-1.43-5.15-1.85c-2-0.42-3.88-1.1-5.63-2.04
	c-0.2-0.08-0.38-0.12-0.56-0.15c-0.54-0.17-0.95-0.47-1.22-0.89c0.05-1.16,0.32-2.32,0.81-3.48c0.67-1.51,1.45-2.98,2.33-4.41
	c0.3-0.49,0.69-0.93,1.19-1.3c0.22,0.59,0.41,1.1,0.56,1.52c0.22,0.57,0.62,0.93,1.19,1.07c0.64,0.02,1.29,0.05,1.93,0.07l0.74-0.48
	c0.25,1.16,0.8,2.13,1.67,2.89c0.45,0.1,0.85,0.31,1.22,0.63c0.27,0.25,0.59,0.38,0.96,0.41c1.09,0.05,2.07-0.17,2.96-0.67
	c0.35-0.17,0.65-0.12,0.93,0.15c0.22,0.42,0.48,0.84,0.78,1.26c0.69,0.94,1.52,1.77,2.48,2.48c0.4,0.27,0.75,0.62,1.08,1.04
	c-0.22,0.44-0.44,0.91-0.67,1.41c-0.27,0.57-0.33,1.16-0.19,1.78c0.32,0.42,0.72,0.75,1.19,1c0.15,0.07,0.3,0.17,0.44,0.3
	c0.79,0.74,1.67,1.31,2.63,1.71c0.35,0.15,0.62,0.39,0.82,0.74C212.37,236.06,212.21,236.62,211.74,237.01z"/>
<path fill-rule="evenodd" clip-rule="evenodd" d="M745.65,253.05c-0.89-1.33-1.53-2.82-1.93-4.45c0.89-1.98,0.72-3.93-0.52-5.85
	c-0.45-0.69-0.82-1.37-1.11-2.04c-1.66-3.63-3.47-7.16-5.45-10.6c-0.84-1.51-1.8-2.92-2.89-4.22c-1.04-1.26-2.37-1.7-4-1.33
	l-1.33-109.05l1.41-8.82l-2.96-14.9l-2.96,14.9l1.3,8.82l0.96,78.19c-1.21-0.35-2.33-0.86-3.37-1.56c-0.62-0.42-1.33-0.63-2.15-0.63
	c-2.92-0.02-5.5,0.84-7.75,2.59c-0.32,0.27-0.67,0.6-1.04,1c-1.53,1.58-2.75,3.4-3.67,5.45c-0.25,0-0.5,0.06-0.74,0.19
	c-0.17,0.07-0.33,0.15-0.48,0.22c-0.57,0.17-0.99,0.47-1.26,0.89c-0.17,0.25-0.38,0.47-0.63,0.67c-0.25,0.25-0.38,0.56-0.41,0.93
	c0.37,0.35,0.83,0.51,1.37,0.48c0.27,0.12,0.54,0.24,0.81,0.33c0.42,0.12,0.82,0.32,1.19,0.59c0.22,0.12,0.39,0.28,0.52,0.48
	c0.05,0.07,0.1,0.15,0.15,0.22v0.44c-0.1,0.22-0.23,0.41-0.41,0.56c-0.22,0.15-0.43,0.32-0.63,0.52c-0.35,0.32-0.63,0.68-0.85,1.07
	c-0.27,0.4-0.37,0.85-0.3,1.37l0.78,0.33c0.07,0.07,0.13,0.17,0.19,0.3c0.3,0.49,0.38,0.99,0.26,1.48c-0.2,0.74-0.32,1.5-0.37,2.26
	c0,0.02-0.01,0.05-0.04,0.07l-1.22,1.11c-0.1,0.35-0.09,0.67,0.04,0.96c0.17,0.45,0.39,0.77,0.67,0.96
	c0.74,0.59,1.54,1.11,2.41,1.56c0.37,0.15,0.62,0.33,0.74,0.56c0.07,0.15,0.15,0.29,0.22,0.44c-0.42,1.24-1.2,2.29-2.33,3.15
	c-0.52,0.39-1.09,0.59-1.7,0.59c-2.17-0.05-4.21,0.42-6.11,1.41c-1.85,0.99-3.4,2.33-4.63,4.04c-0.15,0.17-0.27,0.4-0.37,0.67
	c-1.68,4.52-3.13,9.07-4.33,13.64c-0.52,1.93-1.05,3.87-1.59,5.82c-1.01,3.78-0.27,7.03,2.22,9.75c-0.05,1.48-0.17,2.98-0.37,4.48
	c-0.12,0.94-0.16,1.89-0.11,2.85c0.12,1.98,0.31,3.93,0.56,5.85l0.09,0.26l2.28,11.08c0.45,0.3,0.8,0.64,1.08,1.04
	c0.15,0.2,0.26,0.46,0.33,0.78c0.67,2.77,1.61,5.44,2.82,8c0.2,0.42,0.35,0.8,0.44,1.15c0.59,2.12,1.77,3.67,3.52,4.63l0.3-0.96
	l-0.89-1l0.59-3.33c0.69,4.35,1.53,8.7,2.52,13.04c0.22,0.99,0.44,1.92,0.67,2.78c0.52,1.93,0.69,3.84,0.52,5.74
	c-0.07,0.84-0.15,1.67-0.22,2.48c-0.35,4.4-0.06,8.78,0.85,13.15c0.52,2.49,0.89,5,1.11,7.52c0.22,2.37,0.16,4.76-0.18,7.15
	c-0.89,0.42-1.54,1.1-1.96,2.04c-0.49,1.14-1.25,2-2.26,2.59c-0.86,0.52-1.78,0.99-2.74,1.41c-0.94,0.34-1.7,0.93-2.3,1.74
	c0.39,0.77,1.09,1.06,2.08,0.89c1.01,0.1,2.05,0.14,3.11,0.11c2.45-0.25,4.89-0.46,7.34-0.63c1.04-0.02,2.1-0.17,3.19-0.44
	c0.81-0.2,1.41-0.59,1.78-1.19c0.05-0.99-0.26-1.9-0.93-2.74c-0.42-0.49-0.58-1.06-0.48-1.71c0.07-0.49,0.07-0.99,0-1.48l-0.45-0.41
	c-0.32-4.67-0.13-9.36,0.56-14.08c0.02-0.22,0.09-0.43,0.18-0.63l0.09-0.24c0.95-2.53,1.11-5.11,0.46-7.73
	c-0.2-0.82-0.3-1.71-0.3-2.67c0-0.77-0.05-1.54-0.15-2.33c-0.1-0.64-0.27-1.25-0.52-1.82c-0.64-1.58-0.51-3.05,0.41-4.41
	c0.25-0.37,0.38-0.73,0.41-1.08c0.3-2.84,0.4-5.69,0.3-8.54c0.17,0.8,0.3,1.55,0.37,2.24c0.02,0.42,0.06,0.78,0.11,1.07
	c0.3,2.42,1.12,4.58,2.48,6.48c0.15,0.22,0.23,0.5,0.26,0.82c0.2,1.78,0.19,3.59-0.04,5.45c-0.37,2.96-0.52,5.92-0.44,8.86
	c0.02,1.41,0.37,2.73,1.04,3.96c0.49,0.96,0.82,1.96,0.96,2.98l-0.04,0.39l-0.11,10.89l-0.44,0.41l-0.07,2.78
	c-0.05,0.02-0.09,0.05-0.11,0.07c-0.86,0.99-1.23,2.05-1.11,3.19c0,0.02,0.01,0.06,0.04,0.11c0.25,0.27,0.51,0.47,0.78,0.59
	c1.61,0.72,3.29,1.01,5.04,0.89c3.24,0.37,6.48,0.57,9.75,0.59c0.77,0,1.33-0.28,1.7-0.85c0.02-0.05,0.05-0.11,0.07-0.19l-4.11-2.63
	l-0.65-60.27c1.3-1.08,2.11-2.44,2.43-4.09c0-0.03,0.01-0.05,0.02-0.07l0.06-0.37c0.17-4.42-0.22-8.81-1.19-13.15
	c-0.52-2.4-0.95-4.76-1.3-7.08c-0.2-1.46-0.32-2.92-0.37-4.37l3.74-2.08l0.56-0.04l2.33,1.37c1.75,0.22,3.36-0.12,4.82-1.04
	c0.59-0.37,1.24-0.78,1.93-1.22c0.59-0.35,1.19-0.69,1.78-1.04c0.32-0.2,0.56-0.46,0.7-0.78
	C746.44,254.95,746.32,254.01,745.65,253.05z M727.9,347.05c-0.02,0-0.05-0.01-0.07-0.04s-0.04-0.06-0.04-0.11
	c-0.05-0.02-0.09-0.05-0.11-0.07c-0.02,0-0.05-0.01-0.08-0.04c-0.02-0.02-0.04-0.06-0.04-0.11c-0.03-0.02-0.04-0.06-0.04-0.11
	c0-0.07-0.02-0.12-0.07-0.15c-0.03-0.02-0.04-0.05-0.04-0.07c-0.02-0.05-0.04-0.1-0.04-0.15c-0.02-0.05-0.05-0.11-0.07-0.19
	c-0.03-0.05-0.06-0.11-0.11-0.18c-0.02-0.02-0.04-0.05-0.04-0.08c0-0.07-0.03-0.11-0.07-0.11c-0.02,0-0.05-0.01-0.07-0.04
	c-0.02-0.02-0.04-0.06-0.04-0.11c-0.02-0.02-0.05-0.05-0.07-0.07c-0.05,0-0.09-0.01-0.11-0.04c-0.02-0.02-0.05-0.05-0.07-0.07
	c-0.02-0.03-0.05-0.04-0.07-0.04s-0.04-0.01-0.04-0.04c-0.05,0-0.09-0.01-0.11-0.04c-0.02,0-0.05-0.01-0.07-0.04
	c-0.05-0.03-0.09-0.05-0.11-0.07h-0.04c-0.05-0.02-0.09-0.04-0.11-0.04c-0.05,0-0.09-0.01-0.11-0.04s-0.04-0.05-0.04-0.07
	c-0.03,0-0.04-0.01-0.04-0.04c-0.03-0.07-0.04-0.15-0.04-0.22c0-0.4,0-0.81,0-1.22c-0.02-0.07-0.03-0.15-0.04-0.22
	c-0.02-0.15-0.04-0.29-0.04-0.45c0-0.02-0.01-0.05-0.04-0.07c0-0.47,0-0.94,0-1.41c0-0.05,0.01-0.11,0.04-0.18
	c0.02-0.05,0.04-0.1,0.04-0.15c0.02-0.05,0.04-0.1,0.04-0.15c0.02-0.32,0.05-0.65,0.08-1c0-0.07,0-0.16,0-0.26
	c0.02-0.1,0.04-0.21,0.04-0.33c0.02-0.12,0.04-0.25,0.04-0.37c0-0.12,0.01-0.25,0.04-0.37c0-0.07,0.01-0.16,0.04-0.26
	c0.02-0.22,0.05-0.46,0.07-0.7c0-0.05,0.01-0.1,0.04-0.15c0-0.03,0-0.06,0-0.11c0-0.2,0.02-0.38,0.07-0.56c0-0.05,0-0.1,0-0.15
	c0-0.49,0-0.98,0-1.45s0-0.94,0-1.41c0-0.02,0-0.06,0-0.11c0.02-0.05,0.05-0.11,0.07-0.19c0-0.05,0.01-0.1,0.04-0.15
	c0.02-0.02,0.05-0.06,0.07-0.11s0.04-0.1,0.04-0.15c0.02-0.03,0.04-0.06,0.04-0.11c0.03-0.05,0.04-0.1,0.04-0.15
	c-0.02-0.1,0-0.18,0.07-0.26c0.03,0,0.04-0.02,0.04-0.07c0.05-0.05,0.34-0.26,0.87-0.63c0.06-0.04,0.12-0.08,0.17-0.11l0.19,15.49
	C727.95,347.14,727.93,347.11,727.9,347.05z"/>
<path fill-rule="evenodd" clip-rule="evenodd" d="M1012.92,239.2c-0.27-0.42-0.57-0.84-0.89-1.26c-0.91-1.16-1.72-2.36-2.41-3.59
	c-0.3-0.54-0.69-1.03-1.18-1.45c-0.72-0.54-1.5-1-2.33-1.37c0.69-1.19,0.78-2.42,0.26-3.71c-0.17-0.42-0.31-0.85-0.41-1.3
	c-0.54,1.56-1.53,2.84-2.96,3.85l-6.93-1.3c-1.33-1.53-2.88-2.78-4.63-3.74c-0.54-0.32-1.12-0.57-1.74-0.74
	c-2.15-0.77-4.31-1.3-6.48-1.59c-5.14-0.05-10.26,0.37-15.38,1.26c-2.15,0.27-4.13,0.95-5.93,2.04c-1.73,1.01-3.48,1.77-5.26,2.26
	c-1.68-3.21-3.16-6.6-4.45-10.15c-0.74-2.1-1.61-4.13-2.59-6.08c-0.42-0.81-0.94-1.59-1.56-2.33c-0.3-0.35-0.62-0.65-0.96-0.93
	c-1.95-1.58-3.85-3.11-5.71-4.59c-0.05-0.02-0.09-0.05-0.11-0.08l-3.56-1.89c2.99-1.16,4.73-3.32,5.22-6.49l2.67,1.41
	c1.01,0.44,1.98,0.39,2.89-0.15l0.67-1.3c0.67,0.15,1.28,0.15,1.85,0c0.25-0.1,0.39-0.26,0.44-0.48l51.62,22.01l1.67-2.11
	l-50.95-21.9c-0.32-2.37-1.64-4.03-3.96-4.97c-0.25-0.1-0.53-0.2-0.85-0.3c-0.35-0.02-0.69-0.05-1.04-0.07
	c-0.84-0.89-1.88-1.32-3.11-1.3c-0.64,0.17-1.16,0.51-1.56,1c-0.25,0.3-0.53,0.54-0.85,0.74l-20.97-9c1.19-0.94,1.59-2.21,1.22-3.82
	c-0.27-1.21-0.85-2.24-1.74-3.08c-0.17-0.15-0.33-0.3-0.48-0.44v-0.33c1.09-0.69,1.98-1.65,2.67-2.89c0.12-0.2,0.16-0.42,0.11-0.67
	c-0.17-0.87-0.54-1.58-1.11-2.15c0.05-0.32,0.16-0.59,0.33-0.82c0.69-0.87,1.09-1.79,1.19-2.78c0.1-1.26-0.17-2.4-0.82-3.41
	c-0.69-0.49-1.19-1.21-1.48-2.15c-0.2-0.72-0.46-1.36-0.78-1.93c-1.31-2.37-3.05-4.41-5.22-6.11c-0.27-0.22-0.44-0.51-0.52-0.85
	c-1.14-0.54-2.06-0.27-2.78,0.82c-0.05,0.1-0.1,0.19-0.15,0.26l-1.48,0.15c-1.58,0.89-3.24,1.63-4.96,2.22
	c-0.32,0.13-0.59,0.33-0.82,0.63c-1.01,1.43-1.89,2.89-2.63,4.37l-1.11,1.11c-0.52,1.83-0.4,3.54,0.37,5.15
	c0.17,0.37,0.2,0.75,0.07,1.15c-0.22,0.72-0.42,1.42-0.59,2.11c-0.15,0.57-0.28,1.15-0.41,1.74c-0.15,0.69-0.26,1.52-0.33,2.48
	l-96.67-41.61l-1.07-0.67l0.33-1.74l-22.01-5.11l30.46,13.19v47.32c0.3,3.31,1.9,4.01,4.82,2.11c0.07,0.54,0.19,1,0.33,1.37
	c0.57,1.38,1.73,1.64,3.48,0.78c0.47,2.54,2.03,2.95,4.67,1.22c0.07,0.54,0.19,1,0.33,1.37c0.62,1.46,1.88,1.67,3.78,0.63
	c0.59,2.08,2.11,2.31,4.56,0.7c0.07,0.54,0.19,1,0.33,1.37c0.35,0.84,1.05,1.28,2.11,1.33c1.06,0.02,1.72-1.21,1.96-3.71l1.48-42.46
	l61.03,26.42c-0.3,0.84-0.67,1.64-1.11,2.41c-0.07,0.12-0.17,0.24-0.3,0.33c-1.41,1.38-2.68,2.85-3.82,4.41
	c-0.59,0.82-0.93,1.61-1,2.37c-0.3,2.82-0.21,5.64,0.26,8.49c0.27,1.68,0.41,3.38,0.41,5.11c0,1.14,0.07,2.27,0.22,3.41
	c0.15,1.11,0.04,2.21-0.33,3.3c-0.35,1.01-0.31,2.01,0.11,3c0.91,2,2.01,3.85,3.3,5.56c0.02,0.69,0.04,1.38,0.04,2.08
	c0.02,1.24-0.01,2.47-0.11,3.71c-0.1,1.58-0.45,3.1-1.04,4.56c-0.64,1.63-1.11,3.31-1.41,5.04h-1.04c0.07-0.44,0.04-0.86-0.11-1.26
	s-0.3-0.77-0.44-1.11c-0.49-1.06-1.07-2.13-1.74-3.19c-0.57-0.89-1.32-1.2-2.26-0.93c-0.2,0.07-0.32,0.19-0.37,0.33
	c-0.15,0.47-0.37,0.94-0.67,1.41c-0.37,0.54-0.52,1.11-0.44,1.7c0.37,2.77,0.4,5.51,0.07,8.23c-0.49-0.15-0.98-0.31-1.45-0.48
	c-2.69-1.21-5.42-2.19-8.19-2.93c-6.2-1.7-12.46-3.13-18.79-4.26c-3.78-0.77-7.35-0.26-10.71,1.52c-0.79,0.45-1.61,0.83-2.45,1.15
	c-2.82,1.14-5.73,2.43-8.74,3.89c-3.16,1.58-5,2.56-5.52,2.93c-0.54,0.37-1.64,1.33-3.3,2.89c-1.68,1.53-3.46,3.77-5.34,6.71
	c-0.59,0.99-1.11,2.03-1.56,3.11c-3.9,9.91-6.62,20.17-8.15,30.79c-0.25,1.66-0.48,3.32-0.7,5c-0.47,3.88-1.05,7.71-1.74,11.49
	c-0.79,4.42-1.12,8.88-1,13.38c0.02,1.06,0.25,2,0.67,2.82c0.12,0.25,0.22,0.51,0.3,0.78c0.4,1.83,1.48,2.96,3.26,3.41
	c1.16-0.47,2.35-0.59,3.56-0.37c0.62,0,1.24-0.09,1.85-0.26c1.53-0.15,2.84-0.66,3.93-1.52c0.47-0.35,0.89-0.74,1.26-1.19
	c0.2-0.27,0.3-0.6,0.3-1c0.07-3.98,0.31-7.91,0.7-11.78c0-0.22,0.16-1.06,0.48-2.52c0.32-1.48,0.58-3.09,0.78-4.82
	c0.17-1.75,0.22-2.94,0.15-3.56c-0.72-5.56-0.72-11.09,0-16.6c0.02-0.2,0.06-0.37,0.11-0.52c1.8-6.65,3.52-13.29,5.15-19.94
	c-0.05,3.24,0.3,6.39,1.04,9.45c0.64,2.74,1.72,5.26,3.22,7.56c0.57,0.86,1.12,1.73,1.67,2.59c0.4,0.59,0.7,1.24,0.93,1.93
	c0.69,2.17,0.93,4.46,0.7,6.86c-0.1,1.23-0.19,2.46-0.26,3.67c-0.37,5.46-2.69,9.93-6.97,13.41c-1.21,0.96-2.42,1.89-3.63,2.78
	c-1.16,0.82-1.8,1.98-1.93,3.48c-0.25,3.21-0.21,6.4,0.11,9.56c0.44,4.69,0.36,9.38-0.26,14.04c-0.1,0.77-0.33,1.51-0.7,2.22
	c-0.96,1.9-1.11,3.8-0.45,5.71c0.84,2.32,2.42,3.98,4.74,4.97v0.52c-0.05,0.08-0.11,0.12-0.18,0.15c-0.89,0.42-1.38,1.08-1.48,1.96
	l0.78,0.37l1.48,0.04l0.37,0.44c-0.25,1.01-0.42,2.04-0.52,3.08c-0.05,0.42,0.06,0.74,0.33,0.96c0.52,0.47,1.1,0.82,1.74,1.04
	c2.47,0.77,4.96,1.15,7.48,1.15c0.44,0,0.87-0.15,1.26-0.44c-0.05-3.26-1.19-6.03-3.41-8.3c-0.52-0.52-1.09-0.99-1.7-1.41
	c-1.28-0.77-1.85-1.83-1.7-3.19l0.52-0.82c-0.57-1.31-0.99-2.66-1.26-4.04c-0.1-0.44-0.15-0.93-0.15-1.45
	c0.05-3.51,0.16-6.99,0.33-10.45c0.07-1.85,0.5-3.64,1.26-5.37c0.25-0.57,0.52-1.08,0.81-1.52c1.38-2.15,2.79-4.25,4.22-6.3
	l1.7-1.96c1.85-2.3,3.61-4.61,5.26-6.93c0.34-0.47,0.68-0.85,1-1.15c0.89-0.72,1.84-1.33,2.85-1.85c2.42-1.23,4.2-3.07,5.34-5.52
	c1.01-2.2,2.19-4.27,3.52-6.23c0.4-0.57,0.82-1.11,1.26-1.63c0.44-0.49,0.99-0.7,1.63-0.63c0.27,0.4,0.52,0.81,0.74,1.26
	c0.54,1.04,0.99,2.13,1.33,3.26c1.8,5.95,2.66,12.01,2.56,18.16c0,0.64-0.17,1.22-0.52,1.74c-1.61,2.22-2.32,4.68-2.15,7.37
	c0.05,0.62,0.25,1.12,0.59,1.52c2.54,2.69,4.66,5.71,6.34,9.04c2.2,4.32,4.24,8.7,6.11,13.12c1.06,2.47,2.78,4.17,5.15,5.11
	c0,0.05,0.01,0.1,0.04,0.15c0.74,1.33,0.67,2.63-0.22,3.89l-0.56,0.96c0.02,0.05,0.05,0.1,0.07,0.15c0.42,1.21,1.2,2.01,2.33,2.41
	c1.58,0.59,3.2,0.9,4.85,0.93c0.05,0,0.11,0,0.19,0c1.04,0.25,1.9,0,2.59-0.74c0.17-0.17,0.2-0.41,0.07-0.7
	c-0.64-1.85-1.51-3.57-2.59-5.15c-0.1-0.15-0.22-0.26-0.37-0.33c-1.21-0.74-2.24-1.72-3.08-2.93c-0.47-0.64-0.72-1.35-0.74-2.11
	c-0.05-1.51-0.52-2.87-1.41-4.08c-0.81-1.16-1.57-2.35-2.26-3.56c-1.78-3.01-3.35-6.1-4.71-9.26c-1.18-2.77-1.85-5.67-2-8.71
	c-0.17-3.24,0.02-6.5,0.59-9.78c0.27-1.48,0.68-2.94,1.22-4.37c1.11-2.99,2.21-5.95,3.3-8.89c0.25-0.67,0.36-1.35,0.33-2.04
	c-0.17-3.24-0.4-6.45-0.67-9.63c3.88,3.24,7.96,6.25,12.23,9.04c4.2,2.79,8.84,4.47,13.93,5.04c2.12,0.25,4.22,0.38,6.3,0.41
	c6.47,0.59,12.76-0.17,18.86-2.3c0.17,3.58,0.51,7.21,1,10.89c0.05,0.37,0.12,0.72,0.22,1.04c0.49,1.78,0.49,3.57,0,5.37
	c-0.67,2.54-0.82,5.09-0.44,7.63c0.17,1.24,0.22,2.45,0.15,3.63c-0.32,5.38-0.86,10.73-1.63,16.04c-0.42,2.99-0.01,5.82,1.22,8.49
	c0.3,0.64,0.7,1.22,1.22,1.74c1.8,1.83,2.14,3.88,1,6.15c-0.02,0.5,0.16,0.9,0.56,1.22c0.12,0.1,0.26,0.16,0.41,0.19
	c0.96,0.27,1.94,0.46,2.93,0.56c1.88,0.37,3.77,0.38,5.67,0.04c-0.07-0.42-0.22-0.77-0.45-1.04c-0.84-1.16-1.19-2.45-1.04-3.85
	c0.05-0.4-0.11-0.73-0.48-1c-0.91-0.64-1.93-1.1-3.04-1.37l-0.26-0.59c0-1.41,0.14-2.85,0.41-4.34c0.05-0.2,0.04-0.38-0.04-0.56
	c-1.46-2.89-2.09-5.93-1.89-9.12c0.12-1.83,0.23-3.69,0.33-5.6c0.1-1.56,0.53-3.01,1.3-4.37l0.26-0.19c1.53-2.96,2.3-6.06,2.3-9.3
	c0-1.83,0.04-3.66,0.11-5.48c0.44-0.74,0.86-1.46,1.26-2.15c0.35-0.64,0.77-1.24,1.26-1.78c0.22-0.22,0.46-0.44,0.7-0.67
	c0.89,2.84,2.29,5.41,4.19,7.71c0.96,1.16,1.89,2.3,2.78,3.41c0.74,0.94,1.14,2.09,1.19,3.45c0.02,0.42,0.11,0.85,0.26,1.3
	c0.94,2.62,2.32,4.99,4.15,7.12c0.91,1.06,1.61,2.26,2.08,3.59c0.37,1.04,0.78,2.1,1.22,3.19c1.51,3.53,2.72,7.13,3.63,10.78
	c0.44,1.85,1.22,3.57,2.33,5.15c0.54,0.82,1.22,1.52,2.04,2.11c0.96,0.72,1.56,1.62,1.78,2.71l-0.93,1.07l0.59,1.08
	c1.19,0.74,2.45,1.35,3.78,1.82c1.23,0.32,2.54,0.41,3.93,0.26c0.05-0.02,0.11-0.05,0.18-0.07l0.89-0.59
	c0.02-1.56-0.1-3.1-0.37-4.63c-0.05-0.3-0.15-0.65-0.3-1.07c-0.47-1.31-1.45-2.1-2.93-2.37c-0.25-0.1-0.46-0.3-0.63-0.59
	c-0.12-0.27-0.27-0.47-0.45-0.59c-0.07-2.32-0.91-4.27-2.52-5.85c-1.11-1.16-2.11-2.41-3-3.74c-3.33-5.16-4.98-10.82-4.93-16.97
	c0-0.72-0.09-1.41-0.26-2.08c-0.77-3.26-2.61-5.73-5.52-7.41c0.17-6.25-1.17-12.12-4.04-17.6c1.63-2.15,2.83-4.57,3.59-7.26
	c0.32-1.09,0.59-2.19,0.81-3.3c0.17-0.91,0.52-1.77,1.04-2.56c0.27-0.4,0.58-0.83,0.93-1.3c1.23-1.8,2.26-3.73,3.07-5.78
	c0.37-0.89,0.95-1.73,1.74-2.52c0.77-0.79,1.56-1.54,2.37-2.26c0.42-0.37,0.77-0.78,1.04-1.22c0.52-0.84,1.26-1.12,2.22-0.85
	c3.56,4.59,7.79,8.62,12.71,12.08c0.52,2.12,1.82,2.99,3.89,2.59c0.94-0.15,1.71-0.56,2.3-1.22c0.35-0.42,0.54-0.9,0.59-1.44
	c0.07-0.82,0.06-1.73-0.04-2.74l0.93-1c1.68,1.19,3.4,2.35,5.15,3.48c1.38,0.94,2.79,1.05,4.22,0.33c1.29-0.62,2.37-1.53,3.26-2.74
	c0.84-1.14,1.42-2.4,1.74-3.78c0.69-2.94,0.4-5.68-0.89-8.23c-0.69-1.36-0.94-2.84-0.74-4.45c0.15-1.29,0.22-2.58,0.22-3.89
	l2.37,1.3c1.48,0.32,2.51-0.12,3.08-1.33c0.59-1.23,1.24-2.46,1.93-3.67c0.22-0.42,0.43-0.85,0.63-1.3
	c0.45-0.89,0.53-1.77,0.26-2.63c-0.3-0.94-0.25-1.86,0.15-2.78C1013.58,241.04,1013.48,240.12,1012.92,239.2z M940.25,233.31
	c0.49-1.31,1.05-2.58,1.67-3.82c0.47-0.89,0.51-1.77,0.11-2.63l-2.93-0.82l-2.22,1.93c-1.09-1.11-2.06-2.3-2.93-3.56
	c-0.5-0.72-1.11-1.33-1.85-1.85c-2.22-1.53-4.39-3.15-6.49-4.85l-0.04-1.67c0.15-0.05,0.31-0.09,0.48-0.11
	c0.99-0.15,1.68-0.62,2.08-1.41L927.8,212l-2.22-0.52l0.48-2.56c0.25,0.27,0.56,0.53,0.93,0.78c0.17,0.07,0.38,0.2,0.63,0.37
	c0.77,0.62,1.51,1.15,2.22,1.59c2.52,1.53,5.25,2.47,8.19,2.82c1.9,0.27,3.64,0.85,5.22,1.74c0.03,0.15,0.09,0.3,0.19,0.44
	c0.3,0.45,0.49,0.89,0.59,1.33c0.94,4.99,1.49,10.03,1.67,15.12C943.92,234.09,942.11,234.15,940.25,233.31z M948.29,232.27
	l-0.48,0.33l-1.78-9.45l2.26-0.33c1.06,2.89,1.64,5.88,1.74,8.97L948.29,232.27z M954.59,229.79l-3.08,1.63
	c-1.04-2.87-1.44-5.73-1.22-8.6c0.44-0.27,0.83-0.17,1.15,0.3c0.39,0.52,0.84,1.03,1.33,1.52c0.1,0.1,0.18,0.22,0.26,0.37
	c1.01,1.38,1.53,2.9,1.56,4.56C954.59,229.64,954.59,229.71,954.59,229.79z M989.05,267.92c-1.16,1.06-1.52,2.32-1.08,3.78
	c0.27,0.89,0.2,1.64-0.22,2.26c-0.79,0.64-1.53,0.67-2.22,0.07c-0.12-0.12-0.26-0.23-0.41-0.33c-1.85-1.23-3.52-2.7-5-4.41
	c-1.61-1.83-3.2-3.62-4.78-5.37c-0.37-0.45-0.64-0.91-0.82-1.41c-0.4-1.06-0.98-1.91-1.74-2.56c1.06-1.66,2.11-3.31,3.15-4.96
	c0.5-0.77,1.01-1.51,1.56-2.22c1.06-1.36,2.48-1.77,4.26-1.22l-0.07,0.59c-0.57,1.66-0.28,3.2,0.85,4.63c2,2.47,4.14,4.79,6.41,6.97
	c0.84,0.81,1.5,1.58,1.96,2.3C990.31,266.7,989.7,267.33,989.05,267.92z"/>
<path fill-rule="evenodd" clip-rule="evenodd" d="M1571.99,335.69l-1.82,0.52l-3.93-4.3c1.31-1.58,2.24-3.3,2.78-5.15
	c0.1-0.32,0.12-0.64,0.07-0.96c-0.27-1.88-0.25-3.77,0.07-5.67l-2.78-1.41c-2.05-2.82-2.94-5.99-2.67-9.52l-4.78-5.85l2.45-2.48
	c-1.43-4.22-3.08-8.42-4.93-12.6c-0.25-0.52-0.32-1.1-0.22-1.74c0.52-2.89,0.26-5.58-0.78-8.08c2.5-7.14,2.36-14.22-0.41-21.23
	l1.67-1.96c0.32-2.69-0.2-5.31-1.56-7.86c-0.15-0.27-0.16-0.57-0.04-0.89c1.48-3.78,1.95-7.78,1.41-12
	c-0.25-1.98-1.08-3.67-2.48-5.08l0.33-1.78l0.63-0.85c-1.63-7.63-4.56-14.63-8.78-20.97c-0.3-0.42-0.69-0.69-1.19-0.82
	c-0.86-0.05-1.68-0.22-2.45-0.52l-0.04-0.04l-2.48-2.93l-3.3,0.26l-1.3-2.19l2.04-6.86l2.89-1.74l-0.15-2.63
	c-3.16-2.82-6.79-4.61-10.89-5.37c-0.59-0.1-1.19-0.12-1.78-0.07c-0.91,0.07-1.83,0.15-2.74,0.22
	c5.88-23.27,12.26-46.39,19.16-69.37c1.06-3.53,2.64-6.92,4.74-10.15V85.05c-0.54,1.16-1.05,2.33-1.52,3.52
	c-0.12,0.25-0.23,0.51-0.33,0.78l-5.56,12.49c0.2,2.5,0.15,5.13-0.15,7.89c-0.02,0.44-0.04,0.89-0.04,1.33l-18.19,72.03
	c-5.21-0.05-9.12,2.2-11.71,6.74c-1.88,3.26-1.51,5.94,1.11,8.04l-0.11,6.22l4.04,5.41l-5.74,22.71c-0.79,0.03-1.52,0.24-2.19,0.63
	c-0.47,0.22-0.8,0.48-1,0.78c-2.15,3.09-1.98,6.18,0.52,9.26c-5.43,21.44-11.08,42.83-16.93,64.18c-0.37,1.38-0.96,2.71-1.78,3.97
	v10.93l3.78-10.38c-0.27-0.77-0.26-1.9,0.04-3.41c0.15-0.57,0.3-1.14,0.44-1.71c4.03-15.29,7.98-30.61,11.86-45.95l4.37,7.12
	l9.6-4.45c-3.48,4.72-6.29,9.78-8.41,15.19c-0.27,0.69-0.59,1.43-0.96,2.22c-0.89,1.98-1.84,3.88-2.85,5.71
	c-1.26,2.27-1.73,4.72-1.41,7.34c0.1,0.89-0.09,1.68-0.56,2.37c-0.12,0.17-0.22,0.33-0.3,0.48c0.27,4.94-0.43,9.76-2.11,14.45
	c-0.42,1.21-0.87,2.5-1.33,3.85c-0.74,2.1-1.93,3.82-3.56,5.15c-0.99,2.52-0.2,4.61,2.37,6.26l-0.37,3.08l-3.74-0.93
	c0.57,2.72-0.43,4.84-3,6.37l-12.75,3.11c0.44,1.14,1.45,1.51,3,1.11c0.49-0.12,0.99-0.09,1.48,0.11c3.53,1.41,7.13,2.4,10.78,2.96
	c0.47,0,0.9-0.02,1.3-0.07c2.2-0.45,4.29,0.09,6.26,1.59c0.57,0.4,1.24,0.51,2,0.33l2.41-5.74l-1.74-1.07l1-7.71
	c3.48-0.59,6.4-2.4,8.75-5.41c1.65-2.1,3.06-4.36,4.22-6.78c0.12-0.22,0.2-0.47,0.22-0.74c0.52-4.08,1.3-8.09,2.33-12.04
	c0.54-2.03,1.8-3.3,3.78-3.82c1.19-0.25,2.36-0.47,3.52-0.67c1.01-0.12,1.95-0.01,2.82,0.33l0.22,1.85l3.11,0.44
	c1.06,2.52,2.48,4.89,4.26,7.11c0.42,0.54,0.8,1.06,1.15,1.56c0.91,1.26,1.73,2.63,2.45,4.11c1.33,2.84,3.05,5.48,5.15,7.93
	c0.59,0.67,0.98,1.48,1.15,2.45c0.86,5.24,4.11,7.93,9.74,8.08c0.32,0.15,0.62,0.35,0.89,0.59c0.15,0.12,0.28,0.27,0.41,0.44
	l-3,2.33c2.17,1.33,2.96,3.38,2.37,6.15l-6.04,10.78c1.24-0.02,2.3-0.65,3.19-1.89c0.74-0.99,1.71-1.69,2.89-2.11
	c3.73-1.36,6.85-3.54,9.38-6.56c0.22-0.27,0.57-0.37,1.04-0.3c1.53-0.22,2.72-0.95,3.56-2.19L1571.99,335.69z M1518.67,214.74
	c0.3,4.08-1.14,7.35-4.3,9.82l3.63-14.3l1.04,2C1518.72,213,1518.59,213.83,1518.67,214.74z"/>
</svg>
